HIERARCHY
ROOT RootJoint
{
    OFFSET   0.000000   0.000000   0.000000
    CHANNELS 6 Xposition Yposition Zposition Xrotation Yrotation Zrotation
    JOINT lHip
    {
        OFFSET   0.100000  -0.051395   0.000000
        CHANNELS 3 Xrotation Yrotation Zrotation
        JOINT lKnee
        {
            OFFSET   0.000000  -0.410000   0.000000
            CHANNELS 3 Xrotation Yrotation Zrotation
            JOINT lAnkle
            {
                OFFSET   0.000000  -0.390000   0.000000
                CHANNELS 3 Xrotation Yrotation Zrotation
                JOINT lToeJoint
                {
                    OFFSET   0.000000  -0.050000   0.130000
                    CHANNELS 3 Xrotation Yrotation Zrotation
                    End Site
                    {
                        OFFSET   0.010000   0.002000   0.060000
                    }
                }
            }
        }
    }
    JOINT rHip
    {
        OFFSET  -0.100000  -0.051395   0.000000
        CHANNELS 3 Xrotation Yrotation Zrotation
        JOINT rKnee
        {
            OFFSET   0.000000  -0.410000   0.000000
            CHANNELS 3 Xrotation Yrotation Zrotation
            JOINT rAnkle
            {
                OFFSET   0.000000  -0.390000   0.000000
                CHANNELS 3 Xrotation Yrotation Zrotation
                JOINT rToeJoint
                {
                    OFFSET   0.000000  -0.050000   0.130000
                    CHANNELS 3 Xrotation Yrotation Zrotation
                    End Site
                    {
                        OFFSET  -0.010000   0.002000   0.060000
                    }
                }
            }
        }
    }
    JOINT pelvis_lowerback
    {
        OFFSET   0.000000   0.093605   0.000000
        CHANNELS 3 Xrotation Yrotation Zrotation
        JOINT lowerback_torso
        {
            OFFSET   0.000000   0.100000   0.000000
            CHANNELS 3 Xrotation Yrotation Zrotation
            JOINT torso_head
            {
                OFFSET   0.000000   0.282350   0.000000
                CHANNELS 3 Xrotation Yrotation Zrotation
                End Site
                {
                    OFFSET   0.000000   0.192650   0.000000
                }
            }
            JOINT lTorso_Clavicle
            {
                OFFSET   0.001000   0.157500   0.000000
                CHANNELS 3 Xrotation Yrotation Zrotation
                JOINT lShoulder
                {
                    OFFSET   0.117647   0.000000   0.000000
                    CHANNELS 3 Xrotation Yrotation Zrotation
                    JOINT lElbow
                    {
                        OFFSET   0.245000   0.000000   0.000000
                        CHANNELS 3 Xrotation Yrotation Zrotation
                        JOINT lWrist
                        {
                            OFFSET   0.240000   0.000000   0.000000
                            CHANNELS 3 Xrotation Yrotation Zrotation
                            End Site
                            {
                                OFFSET   0.116353  -0.002500   0.000000
                            }
                        }
                    }
                }
            }
            JOINT rTorso_Clavicle
            {
                OFFSET  -0.001000   0.157500   0.000000
                CHANNELS 3 Xrotation Yrotation Zrotation
                JOINT rShoulder
                {
                    OFFSET  -0.117647   0.000000   0.000000
                    CHANNELS 3 Xrotation Yrotation Zrotation
                    JOINT rElbow
                    {
                        OFFSET  -0.245000   0.000000   0.000000
                        CHANNELS 3 Xrotation Yrotation Zrotation
                        JOINT rWrist
                        {
                            OFFSET  -0.240000   0.000000   0.000000
                            CHANNELS 3 Xrotation Yrotation Zrotation
                            End Site
                            {
                                OFFSET  -0.116353  -0.002500   0.000000
                            }
                        }
                    }
                }
            }
        }
    }
}
MOTION
Frames: 14
Frame Time:   0.008333
    2.689458    0.919385   -0.326378    5.836114  159.413093    0.608423  -19.067070    3.851287   -4.605213   20.804400    0.000000    0.000000    2.886600   -5.597725    8.174504   -6.684450    0.000000    0.000000  -16.160612   -5.325821   -8.362109   35.533100    0.000000    0.000000  -12.816260   -3.767082    0.976980   -8.564500    0.000000    0.000000   -3.404942    6.023472   -1.437568   -3.562856    0.670997   -1.841800   19.496011   35.114240   -0.507479   -1.422959   11.974948    6.986925    4.270877  -11.484523  -87.228349   -0.000096  -16.222800    0.000028    4.148507   -4.077903    8.026100  -12.046125   -0.204605   -8.863799    8.006577   30.602781   72.874468   -0.000171   55.352100   -0.000047    9.494536    0.943526  -13.188448
    2.689853    0.918895   -0.324656    6.006931  159.446588    0.500992  -19.751010    3.429689   -4.406134   21.542500    0.000000    0.000000    2.722114   -5.167947    8.308998   -6.666250    0.000000    0.000000  -15.921326   -3.401738   -8.974130   33.691100    0.000000    0.000000  -12.856011   -4.354767    0.488420   -8.605850    0.000000    0.000000   -3.337411    5.842844   -1.350626   -3.584191    0.447475   -1.422875   19.402543   35.517439   -0.853744   -1.469456   11.806239    6.998284    3.736230  -11.730986  -86.988546   -0.000095  -17.288100    0.000030    3.604572   -4.337798    7.858962  -12.237494    0.059758   -8.986567    7.786446   29.722647   72.822213   -0.000170   55.376700   -0.000047    8.345103    1.230228  -13.106624
    2.690071    0.918205   -0.322908    6.086387  159.473324    0.478240  -20.367812    3.194410   -4.325213   22.354600    0.000000    0.000000    2.674499   -4.878126    8.711527   -6.876400    0.000000    0.000000  -15.686652   -1.534153   -9.728510   32.065400    0.000000    0.000000  -13.012189   -4.536933    0.033160   -8.312550    0.000000    0.000000   -3.193611    5.727424   -1.228439   -3.558149    0.305990   -1.181690   19.298454   35.805506   -1.182695   -1.589205   11.457267    7.103551    3.253301  -12.014551  -86.717469   -0.000095  -18.373400    0.000032    3.128631   -4.617898    7.706420  -12.350045    0.173208   -9.056147    7.365684   28.791610   72.788115   -0.000171   55.227000   -0.000046    7.412736    1.105036  -12.964215
    2.690384    0.917300   -0.320507    6.293768  159.505076    0.347033  -21.262339    3.093993   -4.145450   23.395800    0.000000    0.000000    2.446988   -4.804992    8.902869   -6.950150    0.000000    0.000000  -15.353658    0.858544  -10.414738   30.201300    0.000000    0.000000  -13.004886   -4.772791    0.091806   -8.278850    0.000000    0.000000   -3.103981    5.574204   -1.098586   -3.557494    0.109411   -0.793289   19.254411   36.179919   -1.564354   -1.685050   11.242825    7.192994    2.667850  -12.364012  -86.375777   -0.000094  -19.466100    0.000033    1.250154   -5.190639    8.013442  -12.485774    0.350182   -9.142209    6.842311   27.865131   72.791734   -0.000173   54.880400   -0.000045    6.693140    1.281737  -12.852487
    2.690482    0.916073   -0.317925    6.534007  159.534572    0.295371  -22.250314    3.247332   -4.109343   24.546200    0.000000    0.000000    2.219915   -4.857254    9.154202   -6.886650    0.000000    0.000000  -15.163650    3.140135  -11.255754   28.604400    0.000000    0.000000  -12.861705   -4.461558    0.371349   -8.489900    0.000000    0.000000   -3.025567    5.453925   -1.043837   -3.523998   -0.058210   -0.364322   19.217092   36.473550   -2.020342   -1.785251   10.976794    7.249493    2.062788  -12.642828  -85.955397   -0.000094  -20.611900    0.000035    1.086023   -5.364566    7.973624  -12.548575    0.479351   -9.245450    6.174203   26.940276   72.786229   -0.000174   54.456500   -0.000044    6.371572    1.217823  -12.918431
    2.690553    0.914628   -0.315539    6.560578  159.614739    0.314648  -23.033048    3.545575   -4.175550   25.756400    0.000000    0.000000    2.005531   -5.071815    9.403442   -6.910500    0.000000    0.000000  -14.658149    5.388783  -12.203214   26.968500    0.000000    0.000000  -12.621002   -3.705456    0.987422   -8.607250    0.000000    0.000000   -2.846600    5.321085   -0.911517   -3.308278   -0.209950   -0.145684   19.099668   36.773559   -2.497754   -2.095769   10.582760    7.349034    1.689425  -12.777748  -85.445377   -0.000093  -21.891500    0.000037    0.954499   -5.553673    7.912894  -12.473260    0.489146   -9.181050    5.288844   26.136028   72.697555   -0.000177   53.801600   -0.000142    6.505354    1.332884  -13.253363
    2.690500    0.912753   -0.312009    6.875613  159.664765    0.266703  -24.299597    4.143991   -4.247659   27.236000    0.000000    0.000000    1.777502   -5.496853    9.703673   -6.966650    0.000000    0.000000  -14.661659    7.565732  -13.131250   25.651900    0.000000    0.000000  -12.151450   -2.433556    1.586250   -8.716500    0.000000    0.000000   -2.626203    5.190166   -0.876064   -3.450922   -0.386000    0.325935   19.057077   37.103990   -3.102925   -2.080922   10.437160    7.421574    0.941678  -13.116703  -84.837014   -0.000092  -23.100600    0.000039    0.625495   -5.787746    7.834001  -12.820151    0.780149   -9.293819    4.901922   25.177272   72.940948   -0.000180   53.217900   -0.000140    6.911597    1.314857  -13.645446
    2.690469    0.910626   -0.309071    6.904730  159.751889    0.300394  -25.264774    4.782817   -4.409201   28.754000    0.000000    0.000000    1.528578   -6.005145   10.009821   -7.017600    0.000000    0.000000  -14.202143    9.815326  -14.187106   24.322000    0.000000    0.000000  -11.375908   -0.837454    3.217895   -8.868850    0.000000    0.000000   -2.421264    5.079747   -0.752664   -3.129073   -0.516370    0.566187   18.821529   37.389901   -3.755951   -2.416677   10.038020    7.538456    0.504521  -13.099417  -84.191699   -0.000091  -24.479400    0.000041    0.193249   -5.963234    7.762414  -12.832728    0.820290   -9.258303    4.000535   24.451163   72.957245   -0.000182   52.533200   -0.000138    7.232595    0.804502  -14.252309
    2.690116    0.908117   -0.304691    7.340544  159.760961    0.338117  -26.830038    5.692847   -4.666392   30.478300    0.000000    0.000000    1.388392   -6.655363   10.335314   -7.118900    0.000000    0.000000  -14.329695   12.252648  -15.363074   23.360000    0.000000    0.000000  -10.139438    0.794204    5.056176   -9.074500    0.000000    0.000000   -2.166619    5.003986   -0.813361   -3.320695   -0.637070    1.063604   18.713048   37.690371   -4.614076   -2.526906    9.829052    7.596258   -0.112920  -13.233226  -83.453046   -0.000090  -25.852100    0.000044   -0.402053   -6.175953    7.691906  -13.252024    1.150028   -9.361360    3.719001   23.546368   73.199679   -0.000185   51.912200   -0.000136    7.418099    0.733237  -14.575028
    2.690000    0.905179   -0.300960    7.381286  159.829684    0.349955  -27.996678    6.516771   -4.853725   32.279300    0.000000    0.000000    1.128462   -7.310526   10.545740   -7.215600    0.000000    0.000000  -13.930107   14.478800  -16.424962   22.341700    0.000000    0.000000   -8.642455    2.473301    7.425616   -9.267700    0.000000    0.000000   -1.906813    4.899320   -0.683818   -2.930941   -0.761696    1.333050   18.431939   38.100413   -5.334884   -2.850439    9.451501    7.746687   -0.641681  -13.015731  -82.666574   -0.000089  -27.295300    0.000046   -1.112472   -6.469725    7.541347  -13.283282    1.243473   -9.400150    2.718953   22.909857   73.298897   -0.000189   50.963100   -0.000133    7.523669    0.540856  -15.001880
    2.689829    0.901878   -0.295740    7.902079  159.833415    0.313879  -29.865101    7.521988   -5.068100   34.295700    0.000000    0.000000    0.983873   -8.109004   10.589324   -7.353800    0.000000    0.000000  -14.289844   16.744415  -17.570608   21.841600    0.000000    0.000000   -7.126459    3.859661   10.355957   -8.737400    0.000000    0.000000   -1.604075    4.834999   -0.764367   -3.190529   -0.875056    1.904806   18.328627   38.508584   -6.169303   -3.017349    9.200566    7.866103   -1.171583  -12.918847  -81.827787   -0.000088  -28.822200    0.000048   -1.801938   -6.721339    7.515223  -13.493713    1.570874   -9.520432    2.264887   22.147517   73.481844   -0.000192   50.204100   -0.000130    6.496469    0.801849  -14.806371
    2.690355    0.898182   -0.290388    8.198077  159.866089    0.012096  -31.660213    8.548508   -4.976995   36.562700    0.000000    0.000000    0.711914   -9.110109   10.701244   -7.451000    0.000000    0.000000  -14.593321   18.768993  -18.226079   22.148100    0.000000    0.000000   -7.675728    4.770643   12.753552   -8.858600    0.000000    0.000000   -1.384133    4.749289   -0.662284   -2.904142   -1.017907    2.551978   18.098951   38.963412   -7.107658   -3.490672    8.868285    7.977908   -1.577527  -12.641771  -80.942622   -0.000086  -30.431500    0.000051   -2.430735   -6.968101    7.468491  -13.541646    1.745438   -9.616517    1.267363   21.552336   73.579612   -0.000131   49.160500   -0.000051    6.217930    0.778882  -14.950334
    2.690629    0.894073   -0.286018    8.092323  159.867289    0.056064  -32.890116    9.606047   -5.215948   38.660600    0.000000    0.000000    0.521283   -9.989818   10.723481   -7.643500    0.000000    0.000000  -14.565706   20.129428  -18.970773   22.660200    0.000000    0.000000   -8.808328    6.112257   13.893651   -9.013150    0.000000    0.000000   -0.995137    4.704511   -0.619890   -2.332698   -1.063682    2.727999   17.690940   39.366644   -7.963226   -3.654782    8.504123    8.237107   -2.357691  -12.177566  -79.901372   -0.000085  -32.014000    0.000053   -3.281551   -7.325978    7.454051  -13.462275    1.938174   -9.312180    0.295446   20.778989   73.405505   -0.000133   48.336400   -0.000049    4.834910    0.817409  -14.958800
    2.691508    0.889124   -0.279818    8.455439  160.110548   -0.383804  -35.102019   10.422286   -4.959110   41.319900    0.000000    0.000000    0.306226  -11.141461   10.677291   -7.857400    0.000000    0.000000  -15.658866   20.450456  -19.021607   23.743000    0.000000    0.000000  -10.290086    7.336738   14.080246   -9.216300    0.000000    0.000000   -0.412110    4.526917   -0.510428   -2.737796   -1.300485    3.550929   17.638780   39.935428   -8.598389   -4.219422    7.957908    8.459113   -2.192754  -11.584000  -78.996849   -0.000083  -33.911700    0.000056   -4.064009   -7.610149    7.509616  -13.880651    2.609350   -9.671992    0.195871   19.740420   73.982788   -0.000135   47.463300   -0.000047    4.150486    1.204158  -14.729635
